<?xml version="1.0" encoding="UTF-8" standalone="no"?>
<!-- Created with Inkscape (http://www.inkscape.org/) -->

<svg
   xmlns:dc="http://purl.org/dc/elements/1.1/"
   xmlns:cc="http://creativecommons.org/ns#"
   xmlns:rdf="http://www.w3.org/1999/02/22-rdf-syntax-ns#"
   xmlns:svg="http://www.w3.org/2000/svg"
   xmlns="http://www.w3.org/2000/svg"
   xmlns:sodipodi="http://sodipodi.sourceforge.net/DTD/sodipodi-0.dtd"
   xmlns:inkscape="http://www.inkscape.org/namespaces/inkscape"
   width="210mm"
   height="297mm"
   viewBox="0 0 210 297"
   version="1.1"
   id="svg8"
   inkscape:version="0.92.4 (5da689c313, 2019-01-14)"
   sodipodi:docname="rodneyrinaldi.svg">
  <defs
     id="defs2" />
  <sodipodi:namedview
     id="base"
     pagecolor="#ffffff"
     bordercolor="#666666"
     borderopacity="1.0"
     inkscape:pageopacity="0.0"
     inkscape:pageshadow="2"
     inkscape:zoom="0.7"
     inkscape:cx="255.71429"
     inkscape:cy="788.57143"
     inkscape:document-units="mm"
     inkscape:current-layer="layer1"
     showgrid="false"
     inkscape:window-width="1366"
     inkscape:window-height="745"
     inkscape:window-x="1912"
     inkscape:window-y="234"
     inkscape:window-maximized="1"
     inkscape:snap-text-baseline="false" />
  <metadata
     id="metadata5">
    <rdf:RDF>
      <cc:Work
         rdf:about="">
        <dc:format>image/svg+xml</dc:format>
        <dc:type
           rdf:resource="http://purl.org/dc/dcmitype/StillImage" />
        <dc:title></dc:title>
      </cc:Work>
    </rdf:RDF>
  </metadata>
  <g
     inkscape:label="Camada 1"
     inkscape:groupmode="layer"
     id="layer1">
    <flowRoot
       xml:space="preserve"
       id="flowRoot10"
       style="font-style:normal;font-variant:normal;font-weight:normal;font-stretch:normal;font-size:53.33333588px;line-height:1.25;font-family:'Viner Hand ITC';-inkscape-font-specification:'Viner Hand ITC';text-align:center;letter-spacing:0px;word-spacing:0px;text-anchor:middle;fill:#000000;fill-opacity:1;stroke:none"
       transform="matrix(0.26458333,0,0,0.26458333,4.1577381,-17.764881)"><flowRegion
         id="flowRegion12"
         style="font-style:normal;font-variant:normal;font-weight:normal;font-stretch:normal;font-size:53.33333588px;font-family:'Viner Hand ITC';-inkscape-font-specification:'Viner Hand ITC';text-align:center;text-anchor:middle"><rect
           id="rect14"
           width="582.85712"
           height="180"
           x="68.571426"
           y="273.94824"
           style="font-style:normal;font-variant:normal;font-weight:normal;font-stretch:normal;font-size:53.33333588px;font-family:'Viner Hand ITC';-inkscape-font-specification:'Viner Hand ITC';text-align:center;text-anchor:middle" /></flowRegion><flowPara
         id="flowPara16">Rodney Rinaldi</flowPara></flowRoot>    <flowRoot
       xml:space="preserve"
       id="flowRoot18"
       style="fill:black;fill-opacity:1;stroke:none;font-family:sans-serif;font-style:normal;font-weight:normal;font-size:40px;line-height:1.25;letter-spacing:0px;word-spacing:0px"><flowRegion
         id="flowRegion20"><rect
           id="rect22"
           width="2.8571429"
           height="62.857143"
           x="308.57144"
           y="336.80539" /></flowRegion><flowPara
         id="flowPara24"></flowPara></flowRoot>    <path
       style="fill:none;stroke:#000000;stroke-width:0.26458332px;stroke-linecap:butt;stroke-linejoin:miter;stroke-opacity:1"
       d="m 34.395833,48.291665 c -0.42595,1.909977 -1.072097,3.763809 -1.511906,5.669645 -0.05666,0.24553 0,0.503968 0,0.755951 0,0.755952 0,1.511904 0,2.267858 0,0.0029 -0.01767,2.979624 0,3.023809 0.03337,0.08343 1.416026,1.368086 1.511906,1.511903 0.312547,0.468823 0.457322,1.034098 0.755952,1.511906 0.689353,1.102966 0.844462,1.222439 1.511905,1.889882 0.251984,0.251984 0.542137,0.470863 0.755952,0.755951 0.169037,0.225383 0.178766,0.556742 0.377976,0.755952 0.32122,0.32122 0.843113,0.406972 1.13393,0.755954 0.360714,0.432856 0.443405,1.043083 0.755951,1.511904 0.521502,0.782253 1.167787,0.934227 1.889882,1.511905 0.27827,0.222616 0.459444,0.558279 0.755952,0.755952 0.46882,0.312547 1.06114,0.41788 1.511906,0.755952 0.570174,0.427632 0.970766,1.048075 1.511903,1.511905 0.344908,0.295635 0.770512,0.483389 1.13393,0.755952 0.645393,0.484047 1.168307,1.15112 1.889879,1.511906 0.574614,0.287306 1.288349,0.1524 1.889882,0.377976 1.932691,0.724757 0.396163,0.82034 2.267857,1.889881 0.451033,0.257734 1.071388,0.102654 1.511903,0.377976 0.604385,0.377741 0.941732,1.084273 1.511906,1.511904 0.450763,0.338074 1.034098,0.457324 1.511906,0.755954 0.534205,0.333877 0.936239,0.878075 1.511903,1.133927 0.587066,0.260919 1.288349,0.152403 1.889882,0.377976 0.425347,0.159507 0.718809,0.571455 1.133928,0.755952 0.728165,0.32363 1.511905,0.50397 2.267857,0.755954 0.377976,0.125992 0.785646,0.184486 1.13393,0.377976 0.794208,0.441227 1.473647,1.070678 2.267855,1.511903 0.884809,0.491561 2.618634,0.560165 3.401787,0.755954 0.565738,0.141433 1.483411,0.930693 1.88988,1.133928 0.225382,0.112691 0.5169,-0.07968 0.755954,0 1.302964,0.434321 0.27999,0.377975 1.133927,0.377975 0.170225,0 1.018897,-0.05751 1.13393,0 0.159367,0.07969 0.218607,0.298294 0.377976,0.377976 0.221446,0.110726 1.61135,-0.06963 1.889879,0 0.273317,0.06833 0.48264,0.30965 0.755954,0.377979 0.24446,0.06111 0.51149,-0.06112 0.755952,0 0.546629,0.136657 0.959392,0.645448 1.511906,0.755951 0.370636,0.07413 0.770493,-0.103838 1.133927,0 0.541774,0.154792 0.970132,0.60116 1.511906,0.755952 0.363432,0.103838 0.763291,-0.07413 1.133928,0 0.276256,0.05525 0.497004,0.266999 0.755951,0.377976 0.623631,0.267271 1.231651,0.591396 1.889882,0.755954 0.366691,0.09167 0.755952,0 1.133927,0 0.251987,0 0.521991,-0.09359 0.755955,0 0.42178,0.168712 0.727614,0.552794 1.133927,0.755952 0.112691,0.05635 0.251984,0 0.377976,0 0.211185,0 1.666827,-0.07435 1.889881,0 0.267269,0.08909 0.488683,0.288885 0.755952,0.377975 0.239054,0.07968 0.530572,-0.112691 0.755954,0 0.159367,0.07968 0.208939,0.321631 0.377976,0.377976 0.446519,0.148842 2.258296,-0.155014 2.645833,0 0.421781,0.168712 0.712148,0.58724 1.133928,0.755952 0.233963,0.09359 0.5169,-0.07968 0.755952,0 0.53454,0.178181 0.97737,0.577773 1.51191,0.755954 0.56696,0.188987 1.32291,-0.188989 1.88988,0 0.43096,0.143653 0.71214,0.58724 1.13392,0.755952 0.23397,0.09359 0.522,-0.09359 0.75596,0 0.42178,0.168711 0.71215,0.58724 1.13393,0.755951 0.20672,0.08269 1.94753,0 2.26785,0 1.6379,0 3.2758,0 4.91369,0 5.16568,0 10.33135,0 15.49703,0 2.64583,0 5.29166,0 7.9375,0 0.75595,0 1.5119,0 2.26785,0 0.37798,0 0.75596,0 1.13393,0 0.25199,0 0.5115,0.06112 0.75595,0 0.27332,-0.06833 0.48869,-0.288885 0.75596,-0.377975 0.23905,-0.07968 0.50397,0 0.75595,0 0.62996,0 1.25992,0 1.88988,0 0.12599,0 0.25198,0 0.37798,0 0.12599,0 0.28888,0.08909 0.37797,0 0.0891,-0.08909 -0.0891,-0.288886 0,-0.377976 0.49067,-0.490667 0.91309,-0.377976 1.51191,-0.377976 0.75595,0 1.5119,0 2.26785,0 0.37798,0 0.77535,0.119525 1.13393,0 0.16904,-0.05635 0.21861,-0.298291 0.37798,-0.377976 0.11269,-0.05635 0.26529,0.05635 0.37798,0 0.15937,-0.07968 0.20894,-0.321633 0.37797,-0.377976 0.35858,-0.119528 0.77535,0.119526 1.13393,0 0.26727,-0.08909 0.52154,-0.221702 0.75595,-0.377978 0.14826,-0.09884 0.20512,-0.334759 0.37798,-0.377976 0.36669,-0.09167 0.76329,0.07413 1.13393,0 0.92319,-0.184637 0.74837,-0.624906 1.5119,-1.133927 0.20967,-0.139777 0.57778,0.178178 0.75595,0 0.0891,-0.08909 -0.0891,-0.288886 0,-0.377976 0.19921,-0.199213 0.53058,-0.208942 0.75596,-0.377976 0.28508,-0.213818 0.45944,-0.558281 0.75595,-0.755954 0.10483,-0.06989 0.26529,0.05634 0.37798,0 0.40631,-0.203155 0.72761,-0.552797 1.13392,-0.755952 0.1127,-0.05635 0.27315,0.06989 0.37798,0 1.13393,-0.755952 0.37798,-0.566965 1.13393,-1.133927 0.37798,-0.251984 0.75595,-0.503971 1.13393,-0.755955 0.25198,0 0.53057,0.112692 0.75595,0 0.31874,-0.159369 0.50397,-0.503967 0.75595,-0.755951 0.25199,-0.251984 0.55828,-0.459444 0.75595,-0.755952 0.0699,-0.104833 -0.0563,-0.265287 0,-0.377976 0.0797,-0.159369 0.25199,-0.251983 0.37798,-0.377978 0.25198,-0.251984 0.54214,-0.470863 0.75595,-0.755952 0.16904,-0.22538 0.25199,-0.503967 0.37798,-0.755951 0.12599,-0.251984 0.27334,-0.494377 0.37798,-0.755952 0.14796,-0.369927 0.15697,-0.802423 0.37797,-1.13393 0.0699,-0.104831 0.32163,0.112691 0.37798,0 0.15119,-0.302382 -0.15119,-0.831548 0,-1.133927 0.15937,-0.318739 0.59658,-0.437216 0.75595,-0.755955 0.15119,-0.302379 -0.15119,-0.831545 0,-1.133927 0.0797,-0.159369 0.29829,-0.218607 0.37798,-0.377976 0.0563,-0.112691 0,-0.251984 0,-0.377976 0,-0.251984 -0.0611,-0.511492 0,-0.755954 0.0683,-0.273315 0.28888,-0.488683 0.37797,-0.755952 0.061,-0.183134 0,-2.475216 0,-2.645833 0,-1.763887 0,-3.527777 0,-5.291666 0,-0.881944 0,-1.763888 0,-2.645834 0,-0.251984 0,-0.503968 0,-0.755951 0,-0.125992 0.0398,-0.258451 0,-0.377976 -0.0891,-0.267272 -0.28888,-0.488683 -0.37797,-0.755954 -0.14774,-0.443209 0.20812,-1.095656 0,-1.511904 -0.0563,-0.112691 -0.28889,0.08909 -0.37798,0 -0.0891,-0.08909 0.0398,-0.25845 0,-0.377976 -0.0891,-0.267271 -0.25198,-0.503967 -0.37798,-0.755954 -0.12599,-0.251984 -0.20894,-0.530569 -0.37797,-0.755951 -0.81743,-1.089904 -0.5461,-0.490062 -1.51191,-1.133928 -0.14825,-0.09884 -0.25198,-0.251984 -0.37797,-0.377976 -0.50397,-0.50397 -0.95537,-1.066673 -1.51191,-1.511905 -0.21999,-0.175993 -0.55674,-0.178766 -0.75595,-0.377976 -0.0891,-0.08909 0.0891,-0.288888 0,-0.377976 -0.19921,-0.199213 -0.55674,-0.178766 -0.75595,-0.377976 -0.19921,-0.199213 -0.14357,-0.599681 -0.37798,-0.755954 -0.20966,-0.139774 -0.5169,0.07968 -0.75595,0 -0.12015,-0.04005 -1.47217,-1.485411 -1.51191,-1.511903 -0.10483,-0.06989 -0.25198,0 -0.37797,0 -0.25199,-0.377976 -0.43474,-0.81271 -0.75595,-1.13393 -0.0891,-0.08909 -0.28889,0.08909 -0.37798,0 -0.19921,-0.199211 -0.14356,-0.599679 -0.37798,-0.755952 -0.20966,-0.139777 -0.53057,0.112691 -0.75595,0 -0.11269,-0.05635 0.0891,-0.288885 0,-0.377976 -0.19921,-0.19921 -0.53057,-0.208941 -0.75595,-0.377976 -0.57018,-0.427633 -0.90075,-1.145214 -1.51191,-1.511906 -0.34164,-0.204986 -0.80242,-0.156972 -1.13392,-0.377975 -0.10484,-0.06989 0,-0.251984 0,-0.377976 -0.25199,-0.251984 -0.43722,-0.596585 -0.75596,-0.755952 -0.22538,-0.112691 -0.53057,0.112689 -0.75595,0 -0.11269,-0.05635 0.0891,-0.288888 0,-0.377978 -0.19921,-0.19921 -0.52154,-0.221703 -0.75595,-0.377976 -0.29651,-0.197673 -0.43722,-0.596583 -0.75595,-0.755952 -0.11269,-0.05635 -0.25199,0 -0.37798,0 -0.25198,-0.125992 -0.52154,-0.221702 -0.75595,-0.377976 -0.29651,-0.197672 -0.43722,-0.596585 -0.75596,-0.755951 -0.11269,-0.05635 -0.26528,0.05634 -0.37797,0 -0.15937,-0.07968 -0.21861,-0.298294 -0.37798,-0.377979 -0.22538,-0.112688 -0.57777,0.178181 -0.75595,0 -0.86864,-0.868643 0.098,-0.755951 -0.75595,-0.755951 -0.88642,0 0.17818,0.08909 -0.75595,-0.377976 -0.16819,-0.08409 -1.33903,0.05763 -1.51191,0 -0.16903,-0.05635 -0.21861,-0.298291 -0.37798,-0.377976 -0.19986,-0.09993 -1.32775,0.04604 -1.5119,0 -0.27332,-0.06833 -0.48868,-0.288888 -0.75595,-0.377976 -0.11953,-0.03984 -0.25575,0.03056 -0.37798,0 -0.38652,-0.09663 -0.74093,-0.312475 -1.13393,-0.377975 -0.62139,-0.103566 -1.25992,0 -1.88988,0 -1.13393,0 -2.26786,0 -3.40178,0 -0.37798,0 -0.7633,0.07412 -1.13393,0 -0.27626,-0.05525 -0.48264,-0.309648 -0.75596,-0.377979 -0.26482,-0.0662 -2.13099,0 -2.26785,0 -1.76389,0 -3.52778,0 -5.29167,0 -4.28373,0 -8.56746,0 -12.85119,0 -5.54365,0 -11.0873,0 -16.630951,0 -1.889882,0 -3.779761,0 -5.669643,0 -1.007938,0 -2.022038,-0.111307 -3.023809,0 -0.516302,0.05737 -0.995603,0.320612 -1.511906,0.377979 -0.626107,0.06957 -1.259919,0 -1.889881,0 -0.503968,0 -1.007936,0 -1.511904,0 -0.503967,0 -1.013002,-0.07127 -1.511905,0 -0.788834,0.112688 -1.475886,0.667953 -2.267858,0.755951 -0.755951,0 -1.511903,0 -2.267855,0 -0.125992,0.125992 -0.208941,0.32163 -0.377978,0.377976 -0.239051,0.07968 -0.503968,0 -0.755952,0 -0.377976,0 -0.755951,0 -1.133927,0 -0.251984,0 -0.507397,-0.04143 -0.755954,0 -4.726959,0.787826 2.309873,-0.135329 -3.401785,1.133927 -0.73795,0.163992 -1.511904,0 -2.267858,0 -0.251984,0 -0.51149,-0.06111 -0.755952,0 -0.273314,0.06833 -0.482637,0.30965 -0.755951,0.377979 -0.244462,0.06111 -0.503968,0 -0.755954,0 -0.377976,0 -0.755952,0 -1.133928,0 -0.125992,0 -0.288885,-0.08909 -0.377976,0 -0.08909,0.08909 0.112692,0.32163 0,0.377976 -0.11826,0.05913 -2.033643,0 -2.267857,0 -0.125992,0 -0.265285,-0.05635 -0.377976,0 -0.159369,0.07968 -0.208941,0.32163 -0.377976,0.377975 -0.350163,0.116721 -1.527701,-0.120726 -1.889881,0 -0.267269,0.08909 -0.482637,0.309648 -0.755952,0.377976 -0.244462,0.06112 -0.503968,0 -0.755954,0 -0.377976,0 -0.755952,0 -1.133928,0 -0.125992,0 -0.265284,-0.05635 -0.377976,0 -0.159369,0.07969 -0.208941,0.32163 -0.377975,0.377976 -0.239054,0.07968 -0.511493,-0.06111 -0.755955,0 -0.273314,0.06833 -0.488682,0.288888 -0.755951,0.377976 -0.249992,0.08333 -1.896547,0 -2.267858,0 -0.125992,0 -0.258447,-0.03984 -0.377975,0 -0.267269,0.08909 -0.488683,0.288888 -0.755952,0.377976 -0.358579,0.119528 -0.767239,-0.09167 -1.13393,0 -0.273315,0.06833 -0.482637,0.30965 -0.755952,0.377978 -0.244459,0.06111 -0.503968,0 -0.755951,0 -0.503968,0 -1.007939,0 -1.511906,0 -0.125992,0 -0.251984,0 -0.377976,0 -0.125992,0 -0.265285,-0.05635 -0.377976,0 -1.253588,1.253588 0.356359,-0.178181 -0.755952,0.377976 -0.159369,0.07969 -0.218609,0.298291 -0.377975,0.377976 -0.225383,0.112691 -0.516901,-0.07968 -0.755955,0 -0.267268,0.08909 -0.488682,0.288885 -0.755951,0.377976 -0.239054,0.07968 -0.530572,-0.112692 -0.755952,0 -0.159369,0.07968 -0.218609,0.298291 -0.377976,0.377975 -0.200419,0.100209 -1.632743,-0.08571 -1.889881,0 -0.169037,0.05635 -0.218607,0.298292 -0.377976,0.377976 -0.237567,0.118785 -1.274339,-0.118782 -1.511906,0 -0.159369,0.07968 -0.218607,0.298294 -0.377976,0.377976 -0.238453,0.119229 -1.651428,-0.119227 -1.889881,0 -0.15937,0.07969 -0.218607,0.298294 -0.377976,0.377978 -0.112692,0.05634 -0.265285,-0.05635 -0.377976,0 -0.934133,0.467064 0.130469,0.377976 -0.755952,0.377976"
       id="path30"
       inkscape:connector-curvature="0" />
  </g>
</svg>
